Coordinates
version=1
nRows=27
nColumns=33
inDegrees=yes

Units are S.I. units (second, meters, Newtons, ...)
Angles are in degrees.

endheader
time	ground_thorax_rot_x	ground_thorax_rot_y	ground_thorax_rot_z	ground_thorax_tx	ground_thorax_ty	ground_thorax_tz	clav_prot_r	clav_elev_r	scapula_abduction_r	scapula_elevation_r	scapula_upward_rot_r	scapula_winging_r	shoulder_elv_r	plane_of_elev_r	axial_rot_r	elbow_flexion_r	pro_sup_r	wrist_flex_r	wrist_dev_r	clav_prot_l	clav_elev_l	scapula_abduction_l	scapula_elevation_l	scapula_upward_rot_l	scapula_winging_l	shoulder_elv_l	plane_of_elev_l	axial_rot_l	elbow_flexion_l	pro_sup_l	wrist_flex_l	wrist_dev_l	
1.8500	-3.459820	6.209250	10.594699	-0.105180	1.031395	0.014003	16.039835	-17.181160	39.533945	-16.478284	21.374178	-8.091647	-1.217723	-55.416104	122.795214	-31.167381	-130.624068	-5.719028	5.833390	24.501594	-11.816642	-36.478849	-6.095564	-26.604199	11.556550	56.916063	2.651377	7.580363	12.952414	14.673504	21.161948	-3.501977	
1.8600	-3.390569	6.188786	10.544642	-0.104880	1.031358	0.014224	16.345452	-17.070821	39.871144	-16.308608	21.168458	-8.377138	-1.173821	-55.666839	122.696930	-31.229406	-132.369029	-4.505064	5.462209	24.566861	-11.645281	-36.614169	-6.106659	-26.322552	11.699177	56.515925	2.437690	7.378138	12.990885	13.784619	20.897494	-3.817818	
1.8700	-3.325332	6.178256	10.482398	-0.104448	1.031414	0.014465	16.475183	-16.976620	39.969182	-16.174544	21.008508	-8.522691	-1.174043	-55.870656	122.624349	-31.346812	-133.636605	-3.777297	5.256820	24.574814	-11.544356	-36.642491	-6.131456	-26.192112	11.749444	56.314546	2.270352	7.246253	13.110976	13.227398	20.758673	-3.992877	
1.8800	-3.234896	6.171469	10.419212	-0.104069	1.031363	0.014713	16.580380	-16.857340	40.010254	-16.010593	20.816562	-8.663669	-1.203717	-56.121108	122.533000	-31.563366	-135.433638	-2.878779	5.043406	24.558358	-11.450872	-36.629824	-6.149573	-26.058264	11.773669	56.115219	2.041464	7.049841	13.334063	12.524051	20.616073	-4.187226	
1.8900	-3.137477	6.160320	10.355097	-0.103690	1.031261	0.014961	16.596549	-16.739737	39.903330	-15.847352	20.606462	-8.732329	-1.268518	-56.380029	122.457814	-31.887595	-137.450988	-2.066221	4.895435	24.495289	-11.380336	-36.536003	-6.179576	-25.986473	11.739075	55.999041	1.781292	6.858527	13.681338	11.851042	20.528399	-4.340354	
1.9000	-3.035990	6.136154	10.291006	-0.103314	1.031088	0.015202	16.528781	-16.625629	39.645405	-15.681631	20.362204	-8.728391	-1.366470	-56.638677	122.409195	-32.351150	-139.698094	-1.332478	4.811465	24.384183	-11.324139	-36.359908	-6.228699	-25.976367	11.647122	55.959487	1.485211	6.693124	14.171033	11.205116	20.493645	-4.462442	
1.9100	-2.953431	6.076821	10.236679	-0.103005	1.030864	0.015404	16.406433	-16.564186	39.261048	-15.547684	20.056820	-8.633720	-1.444483	-56.892716	122.453593	-32.925764	-142.179843	-0.721921	4.772825	24.232063	-11.253104	-36.116951	-6.313445	-26.010861	11.515453	55.973802	1.162956	6.605375	14.761377	10.604259	20.509769	-4.560579	
1.9200	-2.882910	5.990413	10.188614	-0.102763	1.030595	0.015571	16.238598	-16.538929	38.767024	-15.431047	19.693363	-8.467752	-1.510349	-57.132808	122.573702	-33.631395	-144.779099	-0.221162	4.783664	24.050397	-11.178967	-35.824738	-6.421520	-26.086190	11.352097	56.036463	0.821201	6.587277	15.441633	10.067530	20.567154	-4.646016	
1.9300	-2.825733	5.870083	10.160724	-0.102663	1.030266	0.015693	16.077097	-16.543161	38.242509	-15.322617	19.270826	-8.275304	-1.546194	-57.360620	122.760600	-34.437575	-147.299053	0.214684	4.805705	23.864640	-11.076348	-35.529040	-6.559282	-26.172640	11.193081	56.088368	0.472277	6.668669	16.165455	9.590130	20.629244	-4.758038	
1.9400	-2.764486	5.733726	10.148873	-0.102685	1.029885	0.015799	15.917223	-16.529580	37.705655	-15.190132	18.823557	-8.093065	-1.595054	-57.566936	122.942999	-35.362882	-149.402267	0.580011	4.867776	23.687428	-10.969014	-35.247597	-6.711046	-26.281326	11.042542	56.136019	0.128239	6.841221	16.930268	9.232325	20.687436	-4.907012	
1.9500	-2.703723	5.583538	10.156789	-0.102837	1.029493	0.015886	15.757535	-16.509706	37.162516	-15.047415	18.364875	-7.913565	-1.667048	-57.766447	123.118092	-36.384973	-151.082940	0.870765	4.985281	23.518395	-10.863410	-34.978903	-6.870137	-26.409544	10.898053	56.184341	-0.214750	7.098066	17.717555	9.005309	20.746718	-5.091274	
1.9600	-2.629677	5.437189	10.181166	-0.103071	1.029125	0.015967	15.584721	-16.470625	36.602000	-14.887087	17.907588	-7.738467	-1.807477	-57.987013	123.229854	-37.539156	-152.344309	1.133370	5.199909	23.352634	-10.791155	-34.711049	-7.012581	-26.563000	10.744406	56.249421	-0.575795	7.394110	18.547408	8.921174	20.817014	-5.322076	
1.9700	-2.551744	5.289512	10.211817	-0.103371	1.028806	0.016027	15.400676	-16.430468	36.026402	-14.725386	17.452511	-7.555907	-2.001983	-58.229339	123.289145	-38.802363	-153.269519	1.361521	5.485414	23.181127	-10.729846	-34.431908	-7.153088	-26.731211	10.580311	56.322629	-0.945444	7.746889	19.425247	8.964458	20.902162	-5.597449	
1.9800	-2.479453	5.136850	10.241706	-0.103709	1.028584	0.016049	15.204284	-16.436497	35.414812	-14.596610	16.973368	-7.326866	-2.231209	-58.521246	123.308468	-40.193954	-153.997408	1.538990	5.843803	22.991529	-10.671639	-34.122048	-7.294829	-26.905199	10.396694	56.409466	-1.332998	8.156480	20.357919	9.174590	21.025686	-5.932747	
1.9900	-2.420757	4.974021	10.267009	-0.104082	1.028453	0.016021	14.996079	-16.487190	34.765254	-14.498260	16.466435	-7.051745	-2.475117	-58.849183	123.337381	-41.671769	-154.783028	1.689222	6.203202	22.777965	-10.588049	-33.775196	-7.458101	-27.075275	10.196596	56.491945	-1.730359	8.607463	21.345748	9.462725	21.180282	-6.304462	
2.0000	-2.369789	4.803831	10.296911	-0.104494	1.028402	0.015951	14.779121	-16.559204	34.085908	-14.410178	15.934968	-6.750605	-2.747288	-59.214152	123.373230	-43.232438	-155.593837	1.821243	6.535647	22.546649	-10.477354	-33.401812	-7.649227	-27.252284	9.985424	56.562773	-2.140419	9.075388	22.395826	9.806314	21.356572	-6.704030	
2.0100	-2.313622	4.630925	10.330520	-0.104951	1.028365	0.015861	14.559684	-16.574008	33.415379	-14.273610	15.417918	-6.490676	-3.071126	-59.571807	123.396858	-44.830406	-156.308365	1.968317	6.773316	22.312158	-10.322744	-33.028069	-7.888282	-27.449739	9.781106	56.600894	-2.544858	9.537266	23.529435	10.104860	21.516826	-7.100977	
2.0200	-2.251486	4.454355	10.378950	-0.105457	1.028359	0.015756	14.340757	-16.545995	32.753120	-14.099067	14.907982	-6.262527	-3.462014	-59.950048	123.399022	-46.476038	-156.955565	2.130013	6.931999	22.076530	-10.140139	-32.655823	-8.168556	-27.682577	9.579726	56.623187	-2.978211	9.952241	24.771035	10.351110	21.665914	-7.492453	
2.0300	-2.174304	4.278190	10.444483	-0.106014	1.028359	0.015645	14.126174	-16.445078	32.118313	-13.864973	14.423470	-6.093278	-3.933053	-60.340156	123.361304	-48.142891	-157.497941	2.323100	6.995586	21.846968	-9.932044	-32.297188	-8.493804	-27.963977	9.386538	56.628328	-3.447798	10.283357	26.145765	10.480946	21.786839	-7.857603	
2.0400	-2.093699	4.104042	10.527288	-0.106617	1.028443	0.015524	13.914587	-16.350947	31.485533	-13.633005	13.932983	-5.920981	-4.491201	-60.795738	123.249825	-49.859593	-158.071432	2.513926	7.010344	21.614047	-9.738853	-31.932639	-8.830179	-28.294952	9.181745	56.672719	-4.024198	10.466934	27.680858	10.533675	21.911444	-8.197760	
2.0500	-2.008235	3.935695	10.612626	-0.107241	1.028601	0.015387	13.702232	-16.262991	30.851298	-13.403949	13.440496	-5.743561	-5.117454	-61.310038	123.065410	-51.612337	-158.692075	2.701772	6.978079	21.373374	-9.550709	-31.556132	-9.182399	-28.666595	8.964231	56.753614	-4.694846	10.503551	29.378565	10.499976	22.035384	-8.506874	
2.0600	-1.930116	3.770835	10.696056	-0.107870	1.028845	0.015227	13.484372	-16.220264	30.191763	-13.205897	12.923191	-5.525610	-5.794618	-61.899230	122.825130	-53.417743	-159.433969	2.870186	6.927536	21.115422	-9.368055	-31.151775	-9.544397	-29.065360	8.724872	56.885624	-5.469895	10.401788	31.221292	10.428673	22.173327	-8.794566	
2.0700	-1.857966	3.610711	10.782452	-0.108493	1.029140	0.015052	13.258819	-16.196975	29.506101	-13.015932	12.382424	-5.284259	-6.523493	-62.540620	122.539128	-55.252479	-160.279840	3.042120	6.827595	20.837450	-9.185879	-30.715838	-9.917355	-29.484385	8.463972	57.059269	-6.340039	10.168708	33.184650	10.269103	22.294871	-9.030375	
2.0800	-1.790567	3.456354	10.863970	-0.109101	1.029461	0.014867	13.025059	-16.180033	28.797508	-12.823930	11.823755	-5.029151	-7.294933	-63.222781	122.217670	-57.108699	-161.204453	3.230742	6.670937	20.539337	-9.000311	-30.247843	-10.298182	-29.909570	8.182710	57.263047	-7.280627	9.844479	35.227034	10.016967	22.388533	-9.207606	
2.0900	-1.725158	3.305876	10.941572	-0.109681	1.029787	0.014675	12.783043	-16.161398	28.066751	-12.622308	11.246694	-4.766451	-8.113871	-63.943219	121.862514	-58.976198	-162.197108	3.468303	6.419705	20.213823	-8.809455	-29.735197	-10.683592	-30.329774	7.876733	57.487523	-8.278656	9.450012	37.316354	9.630023	22.424328	-9.294873	
2.1000	-1.653530	3.155718	11.008279	-0.110227	1.030075	0.014473	12.534885	-16.109926	27.327187	-12.387730	10.666308	-4.520454	-8.952256	-64.686897	121.510633	-60.847197	-163.176699	3.771253	6.091767	19.869767	-8.590713	-29.193622	-11.089910	-30.738061	7.558110	57.690824	-9.275037	9.062097	39.402055	9.147590	22.403363	-9.323637	
2.1100	-1.583468	3.007502	11.072070	-0.110743	1.030351	0.014264	12.284790	-16.061286	26.569976	-12.143602	10.057712	-4.266303	-9.826425	-65.471977	121.129768	-62.720081	-164.177007	4.151507	5.653763	19.500637	-8.365338	-28.609578	-11.496704	-31.129785	7.217264	57.901529	-10.308233	8.645114	41.488136	8.572328	22.320811	-9.284043	
